PathFileType	3	(X/Y/Z)	squats_2__fused_aligned.trc
DataRate	CameraRate	NumFrames	NumMarkers	Units	OrigDataRate	OrigDataStartFrame	OrigNumFrames
100.0	100.0	15	19	mm	100.0	526	1520
Frame#	Time	pelvis			neck			head			hip_left			hip_right			knee_left			knee_right			ankle_left			ankle_right			heel_left			heel_right			toe_left			toe_right			shoulder_left			shoulder_right			elbow_left			elbow_right			wrist_left			wrist_right			
		X1	Y1	Z1	X2	Y2	Z2	X3	Y3	Z3	X4	Y4	Z4	X5	Y5	Z5	X6	Y6	Z6	X7	Y7	Z7	X8	Y8	Z8	X9	Y9	Z9	X10	Y10	Z10	X11	Y11	Z11	X12	Y12	Z12	X13	Y13	Z13	X14	Y14	Z14	X15	Y15	Z15	X16	Y16	Z16	X17	Y17	Z17	X18	Y18	Z18	X19	Y19	Z19	
526	5.25000	102.530665	923.854630	3.739171	104.238979	1477.585146	-172.160252	103.575981	1625.523269	-280.386224	25.144059	925.091103	9.852577	179.917271	922.618156	-2.374233	-69.349177	516.225408	-79.406143	220.420996	511.723058	-118.142809	-90.140990	149.898611	80.087461	229.608169	144.019209	37.356321	-85.835820	108.479455	121.572784	226.381665	105.333056	81.718537	-115.151687	75.413196	-92.413444	244.451638	54.527688	-133.014727	-74.608750	1429.423816	-126.962482	283.701929	1400.441769	-150.554254	-181.430702	1158.884631	-105.980226	331.733512	1111.677830	-169.317262	-179.819989	979.595428	-286.747300	315.610303	940.118195	-355.467575
527	5.26000	102.001091	926.862962	1.828273	103.694281	1481.903067	-169.753785	102.808572	1630.355635	-277.299254	24.716209	928.053347	7.961129	179.285949	925.672578	-4.304585	-67.531625	517.521445	-75.568063	219.127066	513.177240	-113.982006	-89.140765	149.898561	81.181063	229.041492	144.166938	38.584441	-84.952306	108.320781	122.519919	225.891781	105.282168	82.754340	-113.732295	75.592117	-91.703672	243.631123	54.866650	-132.102826	-75.033122	1433.410259	-124.716493	283.154387	1404.988433	-148.406906	-181.030693	1162.568225	-103.812632	332.037699	1116.414910	-167.943355	-180.178283	983.638996	-285.021409	316.811918	945.369922	-355.023126
528	5.27000	101.471517	929.871295	-0.082626	103.149583	1486.220988	-167.347317	102.041164	1635.188001	-274.212283	24.288359	931.015592	6.069682	178.654627	928.727000	-6.234936	-65.714072	518.817481	-71.729983	217.833135	514.631422	-109.821203	-88.140539	149.898511	82.274666	228.474816	144.314668	39.812560	-84.068793	108.162108	123.467054	225.401897	105.231280	83.790143	-112.312904	75.771037	-90.993900	242.810609	55.205613	-131.190926	-75.457495	1437.396701	-122.470505	282.606844	1409.535096	-146.259557	-180.630683	1166.251819	-101.645038	332.341885	1121.151989	-166.569448	-180.536577	987.682565	-283.295517	318.013532	950.621649	-354.578678
529	5.28000	100.941943	932.879627	-1.993524	102.604885	1490.538909	-164.940850	101.273755	1640.020366	-271.125313	23.860510	933.977836	4.178234	178.023305	931.781422	-8.165288	-63.896519	520.113518	-67.891903	216.539205	516.085604	-105.660401	-87.140314	149.898461	83.368268	227.908139	144.462398	41.040680	-83.185279	108.003434	124.414190	224.912013	105.180393	84.825946	-110.893512	75.949957	-90.284128	241.990094	55.544576	-130.279025	-75.881868	1441.383143	-120.224516	282.059302	1414.081760	-144.112208	-180.230673	1169.935412	-99.477443	332.646071	1125.889069	-165.195541	-180.894871	991.726133	-281.569626	319.215147	955.873377	-354.134229
530	5.29000	100.412369	935.887960	-3.904423	102.060186	1494.856830	-162.534383	100.506347	1644.852732	-268.038342	23.432660	936.940080	2.286787	177.391982	934.835844	-10.095640	-62.078967	521.409554	-64.053822	215.245275	517.539786	-101.499598	-86.140088	149.898412	84.461871	227.341462	144.610127	42.268799	-82.301765	107.844761	125.361325	224.422128	105.129505	85.861749	-109.474120	76.128878	-89.574356	241.169579	55.883539	-129.367125	-76.306240	1445.369586	-117.978528	281.511759	1418.628423	-141.964859	-179.830663	1173.619006	-97.309849	332.950257	1130.626149	-163.821633	-181.253165	995.769701	-279.843735	320.416762	961.125104	-353.689781
531	5.30000	99.882795	938.896292	-5.815321	101.515488	1499.174752	-160.127915	99.738938	1649.685098	-264.951372	23.004810	939.902324	0.395339	176.760660	937.890267	-12.025991	-60.261414	522.705591	-60.215742	213.951345	518.993968	-97.338795	-85.139862	149.898362	85.555473	226.774786	144.757857	43.496919	-81.418251	107.686087	126.308460	223.932244	105.078617	86.897552	-108.054728	76.307798	-88.864584	240.349064	56.222501	-128.455224	-76.730613	1449.356028	-115.732539	280.964217	1423.175087	-139.817511	-179.430653	1177.302600	-95.142255	333.254443	1135.363228	-162.447726	-181.611458	999.813269	-278.117844	321.618377	966.376832	-353.245333
532	5.31000	99.353221	941.904625	-7.726220	100.970790	1503.492673	-157.721448	98.971529	1654.517464	-261.864402	22.576960	942.864569	-1.496108	176.129338	940.944689	-13.956343	-58.443861	524.001627	-56.377662	212.657414	520.448150	-93.177993	-84.139637	149.898312	86.649076	226.208109	144.905586	44.725039	-80.534737	107.527414	127.255595	223.442360	105.027730	87.933355	-106.635336	76.486719	-88.154812	239.528549	56.561464	-127.543323	-77.154986	1453.342470	-113.486550	280.416674	1427.721751	-137.670162	-179.030644	1180.986193	-92.974661	333.558629	1140.100308	-161.073819	-181.969752	1003.856837	-276.391953	322.819991	971.628559	-352.800884
533	5.32000	98.823647	944.912957	-9.637118	100.426092	1507.810594	-155.314981	98.204121	1659.349830	-258.777431	22.149111	945.826813	-3.387556	175.498016	943.999111	-15.886695	-56.626309	525.297664	-52.539582	211.363484	521.902332	-89.017190	-83.139411	149.898262	87.742678	225.641433	145.053316	45.953158	-79.651224	107.368740	128.202731	222.952475	104.976842	88.969159	-105.215944	76.665639	-87.445039	238.708034	56.900427	-126.631423	-77.579358	1457.328913	-111.240562	279.869132	1432.268414	-135.522813	-178.630634	1184.669787	-90.807067	333.862815	1144.837387	-159.699912	-182.328046	1007.900406	-274.666062	324.021606	976.880287	-352.356436
534	5.33000	98.294073	947.921290	-11.548017	99.881394	1512.128515	-152.908513	97.436712	1664.182196	-255.690461	21.721261	948.789057	-5.279003	174.866694	947.053533	-17.817046	-54.808756	526.593700	-48.701502	210.069554	523.356514	-84.856387	-82.139186	149.898213	88.836281	225.074756	145.201046	47.181278	-78.767710	107.210067	129.149866	222.462591	104.925954	90.004962	-103.796552	76.844559	-86.735267	237.887519	57.239390	-125.719522	-78.003731	1461.315355	-108.994573	279.321590	1436.815078	-133.375464	-178.230624	1188.353381	-88.639473	334.167001	1149.574467	-158.326005	-182.686340	1011.943974	-272.940171	325.223221	982.132014	-351.911988
535	5.34000	97.764499	950.929623	-13.458916	99.336696	1516.446436	-150.502046	96.669304	1669.014561	-252.603490	21.293411	951.751302	-7.170451	174.235372	950.107955	-19.747398	-52.991203	527.889737	-44.863422	208.775623	524.810696	-80.695585	-81.138960	149.898163	89.929883	224.508079	145.348775	48.409397	-77.884196	107.051393	130.097001	221.972707	104.875067	91.040765	-102.377160	77.023480	-86.025495	237.067004	57.578352	-124.807622	-78.428104	1465.301797	-106.748585	278.774047	1441.361741	-131.228116	-177.830614	1192.036974	-86.471879	334.471187	1154.311547	-156.952097	-183.044634	1015.987542	-271.214279	326.424835	987.383742	-351.467539
536	5.35000	97.234925	953.937955	-15.369814	98.791998	1520.764358	-148.095579	95.901895	1673.846927	-249.516520	20.865562	954.713546	-9.061898	173.604050	953.162377	-21.677749	-51.173651	529.185773	-41.025342	207.481693	526.264878	-76.534782	-80.138734	149.898113	91.023486	223.941403	145.496505	49.637517	-77.000682	106.892720	131.044136	221.482823	104.824179	92.076568	-100.957768	77.202400	-85.315723	236.246489	57.917315	-123.895721	-78.852476	1469.288240	-104.502596	278.226505	1445.908405	-129.080767	-177.430605	1195.720568	-84.304285	334.775373	1159.048626	-155.578190	-183.402928	1020.031110	-269.488388	327.626450	992.635469	-351.023091
537	5.36000	96.315843	955.378531	-16.276777	97.935267	1522.864750	-145.306990	95.042714	1676.256239	-246.282000	20.018310	956.106482	-10.016447	172.613147	954.650593	-22.537135	-50.264337	529.832173	-37.953640	206.197599	527.143052	-72.989684	-79.359884	149.854648	92.383309	222.875279	145.605560	51.127388	-76.289888	106.758283	132.304148	220.412141	104.768858	93.410189	-99.648033	77.275667	-84.209337	235.276226	58.337724	-122.675192	-79.503706	1471.349160	-101.860276	277.301272	1448.161470	-126.466087	-178.049920	1197.648621	-81.889073	334.158306	1161.415171	-153.850752	-184.776841	1022.074019	-267.598632	326.584201	995.540058	-349.948720
538	5.37000	95.396761	956.819107	-17.183741	97.078536	1524.965143	-142.518401	94.183532	1678.665550	-243.047480	19.171058	957.499418	-10.970996	171.622244	956.138809	-23.396520	-49.355024	530.478573	-34.881939	204.913506	528.021226	-69.444587	-78.581034	149.811182	93.743131	221.809156	145.714615	52.617258	-75.579094	106.623847	133.564160	219.341459	104.713536	94.743809	-98.338297	77.348935	-83.102951	234.305963	58.758134	-121.454663	-80.154935	1473.410080	-99.217956	276.376040	1450.414536	-123.851407	-178.669235	1199.576675	-79.473861	333.541239	1163.781716	-152.123314	-186.150754	1024.116928	-265.708876	325.541952	998.444647	-348.874350
539	5.38000	94.477679	958.259683	-18.090704	96.221805	1527.065536	-139.729813	93.324351	1681.074862	-239.812960	18.323807	958.892354	-11.925545	170.631341	957.627025	-24.255906	-48.445711	531.124973	-31.810237	203.629412	528.899400	-65.899489	-77.802183	149.767716	95.102954	220.743032	145.823670	54.107129	-74.868300	106.489410	134.824171	218.270777	104.658215	96.077430	-97.028562	77.422202	-81.996565	233.335699	59.178543	-120.234134	-80.806164	1475.471000	-96.575637	275.450808	1452.667602	-121.236727	-179.288550	1201.504728	-77.058648	332.924171	1166.148261	-150.395876	-187.524667	1026.159837	-263.819120	324.499703	1001.349236	-347.799980
540	5.39000	93.558597	959.700259	-18.997667	95.365074	1529.165929	-136.941224	92.465169	1683.484173	-236.578440	17.476555	960.285290	-12.880094	169.640438	959.115241	-25.115291	-47.536398	531.771373	-28.738536	202.345318	529.777574	-62.354391	-77.023333	149.724251	96.462777	219.676908	145.932725	55.597000	-74.157506	106.354974	136.084183	217.200095	104.602893	97.411051	-95.718826	77.495469	-80.890179	232.365436	59.598953	-119.013605	-81.457394	1477.531920	-93.933317	274.525576	1454.920667	-118.622047	-179.907865	1203.432781	-74.643436	332.307104	1168.514806	-148.668438	-188.898581	1028.202746	-261.929364	323.457454	1004.253825	-346.725609
